<svg width="38" height="36" viewBox="0 0 38 36" fill="none" xmlns="http://www.w3.org/2000/svg">
<path d="M25.419 1.5C26.7264 1.49992 27.9843 2.05062 28.9355 3.03944C29.8867 4.02825 30.4593 5.38042 30.536 6.8193L30.5445 7.15081V10.918C31.8519 10.9179 33.1098 11.4686 34.061 12.4575C35.0122 13.4463 35.5848 14.7984 35.6615 16.2373L35.67 16.5688V24.1032C35.6701 25.5446 35.1706 26.9315 34.2737 27.9802C33.3768 29.0289 32.1503 29.6601 30.8452 29.7446L30.5445 29.7541V31.5736C30.5445 33.4949 28.5917 34.5761 27.2061 33.5194L27.0421 33.3838L23.092 29.7541H16.8765C15.6174 29.7541 14.4022 29.2432 13.4629 28.3187L13.2237 28.0663L10.0425 30.6959C8.69108 31.8128 6.7861 30.8371 6.63575 29.0402L6.6255 28.8123V25.9868C5.31814 25.9869 4.06016 25.4362 3.10896 24.4474C2.15776 23.4586 1.58524 22.1064 1.50854 20.6675L1.5 20.336V7.15081C1.49993 5.70946 1.99944 4.32255 2.89633 3.27386C3.79322 2.22517 5.01969 1.59398 6.3248 1.50942L6.6255 1.5H25.419ZM30.5445 14.6852H16.8765C16.4234 14.6852 15.9888 14.8837 15.6684 15.2369C15.348 15.5902 15.168 16.0693 15.168 16.5688V24.1032C15.168 24.6028 15.348 25.0819 15.6684 25.4352C15.9888 25.7884 16.4234 25.9868 16.8765 25.9868H23.092C23.8913 25.9872 24.6651 26.2965 25.2789 26.8608L27.1378 28.5674C27.1933 27.8632 27.4863 27.2076 27.9588 26.7298C28.4313 26.2521 29.0491 25.987 29.6902 25.9868H30.5445C30.9976 25.9868 31.4322 25.7884 31.7526 25.4352C32.073 25.0819 32.253 24.6028 32.253 24.1032V16.5688C32.253 16.0693 32.073 15.5902 31.7526 15.2369C31.4322 14.8837 30.9976 14.6852 30.5445 14.6852ZM25.419 5.26721H6.6255C6.17238 5.26721 5.73781 5.46566 5.41741 5.8189C5.097 6.17215 4.917 6.65125 4.917 7.15081V20.336C4.917 20.8356 5.097 21.3147 5.41741 21.6679C5.73781 22.0212 6.17238 22.2196 6.6255 22.2196H7.47975C8.15943 22.2196 8.81128 22.5173 9.29189 23.0472C9.7725 23.577 10.0425 24.2957 10.0425 25.045V25.9868L11.7681 24.561C11.7568 24.4087 11.7511 24.256 11.751 24.1032V16.5688C11.751 15.0701 12.291 13.6328 13.2522 12.5731C14.2134 11.5134 15.5171 10.918 16.8765 10.918H27.1275V7.15081C27.1275 6.65125 26.9475 6.17215 26.6271 5.8189C26.3067 5.46566 25.8721 5.26721 25.419 5.26721Z" fill="black" stroke="black" stroke-width="3"/>
</svg>
