<svg width="35" height="33" viewBox="0 0 35 33" fill="none" xmlns="http://www.w3.org/2000/svg">
<path d="M23.919 8.77843e-09C25.2264 -8.02824e-05 26.4843 0.550625 27.4355 1.53944C28.3867 2.52825 28.9593 3.88042 29.036 5.3193L29.0445 5.65081V9.41802C30.3519 9.41794 31.6098 9.96864 32.561 10.9575C33.5122 11.9463 34.0848 13.2984 34.1615 14.7373L34.17 15.0688V22.6032C34.1701 24.0446 33.6706 25.4315 32.7737 26.4802C31.8768 27.5289 30.6503 28.1601 29.3452 28.2446L29.0445 28.2541V30.0736C29.0445 31.9949 27.0917 33.0761 25.7061 32.0194L25.5421 31.8838L21.592 28.2541H15.3765C14.1174 28.2541 12.9022 27.7432 11.9629 26.8187L11.7237 26.5663L8.5425 29.1959C7.19108 30.3128 5.2861 29.3371 5.13575 27.5402L5.1255 27.3123V24.4868C3.81814 24.4869 2.56016 23.9362 1.60896 22.9474C0.657761 21.9586 0.0852413 20.6064 0.0085427 19.1675L7.96237e-09 18.836V5.65081C-7.28192e-05 4.20946 0.499437 2.82255 1.39633 1.77386C2.29322 0.725174 3.51969 0.0939777 4.8248 0.00941824L5.1255 8.77843e-09H23.919ZM29.0445 13.1852H15.3765C14.9234 13.1852 14.4888 13.3837 14.1684 13.7369C13.848 14.0902 13.668 14.5693 13.668 15.0688V22.6032C13.668 23.1028 13.848 23.5819 14.1684 23.9352C14.4888 24.2884 14.9234 24.4868 15.3765 24.4868H21.592C22.3913 24.4872 23.1651 24.7965 23.7789 25.3608L25.6378 27.0674C25.6933 26.3632 25.9863 25.7076 26.4588 25.2298C26.9313 24.7521 27.5491 24.487 28.1902 24.4868H29.0445C29.4976 24.4868 29.9322 24.2884 30.2526 23.9352C30.573 23.5819 30.753 23.1028 30.753 22.6032V15.0688C30.753 14.5693 30.573 14.0902 30.2526 13.7369C29.9322 13.3837 29.4976 13.1852 29.0445 13.1852ZM23.919 3.76721H5.1255C4.67238 3.76721 4.23781 3.96566 3.91741 4.3189C3.597 4.67215 3.417 5.15125 3.417 5.65081V18.836C3.417 19.3356 3.597 19.8147 3.91741 20.1679C4.23781 20.5212 4.67238 20.7196 5.1255 20.7196H5.97975C6.65943 20.7196 7.31128 21.0173 7.79189 21.5472C8.2725 22.077 8.5425 22.7957 8.5425 23.545V24.4868L10.2681 23.061C10.2568 22.9087 10.2511 22.756 10.251 22.6032V15.0688C10.251 13.5701 10.791 12.1328 11.7522 11.0731C12.7134 10.0134 14.0171 9.41802 15.3765 9.41802H25.6275V5.65081C25.6275 5.15125 25.4475 4.67215 25.1271 4.3189C24.8067 3.96566 24.3721 3.76721 23.919 3.76721Z" fill="black"/>
</svg>
