<svg width="67" height="72" viewBox="0 0 67 72" fill="none" xmlns="http://www.w3.org/2000/svg">
<path d="M17.8667 31.5H31.2667V72H17.8667V31.5ZM22.3333 67.5H26.8V36H22.3333V67.5ZM35.7333 40.5H49.1333V72H35.7333V40.5ZM40.2 67.5H44.6667V45H40.2V67.5ZM0 49.5H13.4V72H0V49.5ZM4.46667 67.5H8.93333V54H4.46667V67.5ZM53.6 22.5H67V72H53.6V22.5ZM58.0667 67.5H62.5333V27H58.0667V67.5ZM48.4703 21.832C48.9123 22.793 49.1333 23.7656 49.1333 24.75C49.1333 25.6875 48.9589 26.5664 48.6099 27.3867C48.2609 28.207 47.784 28.9219 47.1792 29.5312C46.5743 30.1406 45.8648 30.6211 45.0505 30.9727C44.2363 31.3242 43.3639 31.5 42.4333 31.5C41.5028 31.5 40.6304 31.3242 39.8161 30.9727C39.0019 30.6211 38.2924 30.1406 37.6875 29.5312C37.0826 28.9219 36.6057 28.207 36.2568 27.3867C35.9078 26.5664 35.7333 25.6875 35.7333 24.75V24.3281C35.7333 24.1875 35.745 24.0469 35.7682 23.9062L29.2078 20.6016C28.603 21.2109 27.8934 21.6797 27.0792 22.0078C26.2649 22.3359 25.4274 22.5 24.5667 22.5C23.5896 22.5 22.6241 22.2773 21.6703 21.832L12.737 30.832C13.179 31.793 13.4 32.7656 13.4 33.75C13.4 34.6875 13.2255 35.5664 12.8766 36.3867C12.5276 37.207 12.0507 37.9219 11.4458 38.5312C10.841 39.1406 10.1314 39.6211 9.31719 39.9727C8.50295 40.3242 7.63056 40.5 6.7 40.5C5.76944 40.5 4.89705 40.3242 4.08281 39.9727C3.26858 39.6211 2.55903 39.1406 1.95417 38.5312C1.34931 37.9219 0.872396 37.207 0.523438 36.3867C0.174479 35.5664 0 34.6875 0 33.75C0 32.8125 0.174479 31.9336 0.523438 31.1133C0.872396 30.293 1.34931 29.5781 1.95417 28.9688C2.55903 28.3594 3.26858 27.8789 4.08281 27.5273C4.89705 27.1758 5.76944 27 6.7 27C7.67708 27 8.64253 27.2227 9.59635 27.668L18.5297 18.668C18.0877 17.707 17.8667 16.7344 17.8667 15.75C17.8667 14.8125 18.0411 13.9336 18.3901 13.1133C18.7391 12.293 19.216 11.5781 19.8208 10.9688C20.4257 10.3594 21.1352 9.87891 21.9495 9.52734C22.7637 9.17578 23.6361 9 24.5667 9C25.4972 9 26.3696 9.17578 27.1839 9.52734C27.9981 9.87891 28.7076 10.3594 29.3125 10.9688C29.9174 11.5781 30.3943 12.293 30.7432 13.1133C31.0922 13.9336 31.2667 14.8125 31.2667 15.75V16.1719C31.2667 16.3125 31.255 16.4531 31.2318 16.5938L37.7922 19.8984C38.397 19.2891 39.1066 18.8203 39.9208 18.4922C40.7351 18.1641 41.5726 18 42.4333 18C43.4104 18 44.3759 18.2227 45.3297 18.668L54.263 9.66797C53.821 8.70703 53.6 7.73438 53.6 6.75C53.6 5.8125 53.7745 4.93359 54.1234 4.11328C54.4724 3.29297 54.9493 2.57812 55.5542 1.96875C56.159 1.35938 56.8686 0.878906 57.6828 0.527344C58.497 0.175781 59.3694 0 60.3 0C61.2306 0 62.103 0.175781 62.9172 0.527344C63.7314 0.878906 64.441 1.35938 65.0458 1.96875C65.6507 2.57812 66.1276 3.29297 66.4766 4.11328C66.8255 4.93359 67 5.8125 67 6.75C67 7.6875 66.8255 8.56641 66.4766 9.38672C66.1276 10.207 65.6507 10.9219 65.0458 11.5312C64.441 12.1406 63.7314 12.6211 62.9172 12.9727C62.103 13.3242 61.2306 13.5 60.3 13.5C59.3229 13.5 58.3575 13.2773 57.4036 12.832L48.4703 21.832ZM6.7 36C7.30486 36 7.8283 35.7773 8.27031 35.332C8.71233 34.8867 8.93333 34.3594 8.93333 33.75C8.93333 33.1406 8.71233 32.6133 8.27031 32.168C7.8283 31.7227 7.30486 31.5 6.7 31.5C6.09514 31.5 5.5717 31.7227 5.12969 32.168C4.68767 32.6133 4.46667 33.1406 4.46667 33.75C4.46667 34.3594 4.68767 34.8867 5.12969 35.332C5.5717 35.7773 6.09514 36 6.7 36ZM60.3 4.5C59.6951 4.5 59.1717 4.72266 58.7297 5.16797C58.2877 5.61328 58.0667 6.14062 58.0667 6.75C58.0667 7.35938 58.2877 7.88672 58.7297 8.33203C59.1717 8.77734 59.6951 9 60.3 9C60.9049 9 61.4283 8.77734 61.8703 8.33203C62.3123 7.88672 62.5333 7.35938 62.5333 6.75C62.5333 6.14062 62.3123 5.61328 61.8703 5.16797C61.4283 4.72266 60.9049 4.5 60.3 4.5ZM24.5667 18C25.1715 18 25.695 17.7773 26.137 17.332C26.579 16.8867 26.8 16.3594 26.8 15.75C26.8 15.1406 26.579 14.6133 26.137 14.168C25.695 13.7227 25.1715 13.5 24.5667 13.5C23.9618 13.5 23.4384 13.7227 22.9964 14.168C22.5543 14.6133 22.3333 15.1406 22.3333 15.75C22.3333 16.3594 22.5543 16.8867 22.9964 17.332C23.4384 17.7773 23.9618 18 24.5667 18ZM42.4333 27C43.0382 27 43.5616 26.7773 44.0036 26.332C44.4457 25.8867 44.6667 25.3594 44.6667 24.75C44.6667 24.1406 44.4457 23.6133 44.0036 23.168C43.5616 22.7227 43.0382 22.5 42.4333 22.5C41.8285 22.5 41.305 22.7227 40.863 23.168C40.421 23.6133 40.2 24.1406 40.2 24.75C40.2 25.3594 40.421 25.8867 40.863 26.332C41.305 26.7773 41.8285 27 42.4333 27Z" fill="#003366"/>
</svg>
