<svg width="48" height="48" viewBox="0 0 48 48" fill="none" xmlns="http://www.w3.org/2000/svg">
<path d="M8.76451 0C3.90936 0 0 3.90937 0 8.76453V39.2356C0 44.0908 3.90936 48.0001 8.76451 48.0001H25.2795V29.2351H20.3175V22.4791H25.2795V16.7071C25.2795 12.1722 28.2113 8.00853 34.965 8.00853C37.6995 8.00853 39.7215 8.27104 39.7215 8.27104L39.5625 14.5801C39.5625 14.5801 37.5003 14.5606 35.25 14.5606C32.8145 14.5606 32.424 15.6827 32.424 17.5456V22.4791H39.756L39.4365 29.2351H32.424V48.0002H39.2355C44.0906 48.0002 48 44.0908 48 39.2357V8.76458C48 3.90942 44.0906 4.80001e-05 39.2355 4.80001e-05L8.76451 0Z" fill="#1877F2"/>
</svg>
