<svg width="48" height="65" viewBox="0 0 48 65" fill="none" xmlns="http://www.w3.org/2000/svg">
<path d="M46.667 0C47.2193 1.64157e-05 47.667 0.447725 47.667 1V63.998C47.667 64.5503 47.2193 64.998 46.667 64.998H1C0.447852 64.9979 0 64.5502 0 63.998V1C0 0.447814 0.447851 0.000159475 1 0H46.667ZM8.66797 51.999V56.332H13.001V51.999H8.66797ZM17.335 56.332H39.002V51.999H17.335V56.332ZM8.66797 47.665H13.001V43.332H8.66797V47.665ZM17.335 47.665H39.002V43.332H17.335V47.665ZM8.66797 38.999H13.001V34.666H8.66797V38.999ZM17.335 38.999H39.002V34.666H17.335V38.999ZM8.66797 30.333H13.001V25.999H8.66797V30.333ZM17.335 30.333H39.002V25.999H17.335V30.333ZM8.66797 21.666H13.001V17.333H8.66797V21.666ZM17.335 21.666H39.002V17.333H17.335V21.666ZM8.66797 13H13.001V8.66602H8.66797V13ZM17.335 13H39.002V8.66602H17.335V13Z" fill="#2A7AC8"/>
</svg>
