<svg width="67" height="51" viewBox="0 0 67 51" fill="none" xmlns="http://www.w3.org/2000/svg">
<path d="M0 0H6.56438V8.36155H0V0Z" fill="black" fill-opacity="0.6"/>
<path d="M10.7394 8.36155H64.3433C64.9356 8.36155 65.5037 7.92107 65.9226 7.13703C66.3414 6.35298 66.5768 5.28958 66.5768 4.18077C66.5768 3.07196 66.3414 2.00857 65.9226 1.22452C65.5037 0.440474 64.9356 0 64.3433 0H10.7394C10.147 0 9.5789 0.440474 9.16004 1.22452C8.74117 2.00857 8.50586 3.07196 8.50586 4.18077C8.50586 5.28958 8.74117 6.35298 9.16004 7.13703C9.5789 7.92107 10.147 8.36155 10.7394 8.36155Z" fill="black" fill-opacity="0.6"/>
<path d="M0 14.1865H6.56438V22.5481H0V14.1865Z" fill="black" fill-opacity="0.6"/>
<path d="M64.3433 14.1865H10.7394C10.147 14.1865 9.5789 14.627 9.16004 15.411C8.74117 16.1951 8.50586 17.2585 8.50586 18.3673C8.50586 19.4761 8.74117 20.5395 9.16004 21.3236C9.5789 22.1076 10.147 22.5481 10.7394 22.5481H64.3433C64.9356 22.5481 65.5037 22.1076 65.9226 21.3236C66.3414 20.5395 66.5768 19.4761 66.5768 18.3673C66.5768 17.2585 66.3414 16.1951 65.9226 15.411C65.5037 14.627 64.9356 14.1865 64.3433 14.1865Z" fill="black" fill-opacity="0.6"/>
<path d="M0 28.373H6.56438V36.7346H0V28.373Z" fill="black" fill-opacity="0.6"/>
<path d="M64.3433 28.373H10.7394C10.147 28.373 9.5789 28.8135 9.16004 29.5976C8.74117 30.3816 8.50586 31.445 8.50586 32.5538C8.50586 33.6626 8.74117 34.726 9.16004 35.5101C9.5789 36.2941 10.147 36.7346 10.7394 36.7346H64.3433C64.9356 36.7346 65.5037 36.2941 65.9226 35.5101C66.3414 34.726 66.5768 33.6626 66.5768 32.5538C66.5768 31.445 66.3414 30.3816 65.9226 29.5976C65.5037 28.8135 64.9356 28.373 64.3433 28.373Z" fill="black" fill-opacity="0.6"/>
<path d="M0 42.5601H6.56438V50.9216H0V42.5601Z" fill="black" fill-opacity="0.6"/>
<path d="M64.3433 42.5601H10.7394C10.147 42.5601 9.5789 43.0005 9.16004 43.7846C8.74117 44.5686 8.50586 45.632 8.50586 46.7408C8.50586 47.8496 8.74117 48.913 9.16004 49.6971C9.5789 50.4811 10.147 50.9216 10.7394 50.9216H64.3433C64.9356 50.9216 65.5037 50.4811 65.9226 49.6971C66.3414 48.913 66.5768 47.8496 66.5768 46.7408C66.5768 45.632 66.3414 44.5686 65.9226 43.7846C65.5037 43.0005 64.9356 42.5601 64.3433 42.5601Z" fill="black" fill-opacity="0.6"/>
</svg>
