<svg width="36" height="36" viewBox="0 0 36 36" fill="none" xmlns="http://www.w3.org/2000/svg">
<path d="M17.75 7.97222V17.75L23.9722 21.3056M33.75 17.75C33.75 19.8512 33.3361 21.9317 32.5321 23.8729C31.728 25.8141 30.5494 27.578 29.0637 29.0637C27.578 30.5494 25.8141 31.728 23.8729 32.5321C21.9317 33.3361 19.8511 33.75 17.75 33.75C15.6488 33.75 13.5683 33.3361 11.6271 32.5321C9.68586 31.728 7.92203 30.5494 6.43629 29.0637C4.95055 27.578 3.772 25.8141 2.96793 23.8729C2.16385 21.9317 1.75 19.8512 1.75 17.75C1.75 13.5065 3.43571 9.43687 6.43629 6.43629C9.43687 3.43571 13.5065 1.75 17.75 1.75C21.9935 1.75 26.0631 3.43571 29.0637 6.43629C32.0643 9.43687 33.75 13.5065 33.75 17.75Z" stroke="#00B55D" stroke-width="3.5" stroke-linecap="round" stroke-linejoin="round"/>
</svg>
