<svg width="39" height="33" viewBox="0 0 39 33" fill="none" xmlns="http://www.w3.org/2000/svg">
<path d="M36.8953 29.652H34.3508V18.0492L34.7229 18.4263C34.9621 18.6682 35.2863 18.8039 35.6242 18.8036C35.9621 18.8033 36.286 18.667 36.5247 18.4247C36.7635 18.1823 36.8974 17.8538 36.8971 17.5114C36.8968 17.169 36.7623 16.8407 36.5232 16.5988L20.8824 0.754597C20.4053 0.27142 19.7583 0 19.0838 0C18.4092 0 17.7623 0.27142 17.2851 0.754597L1.64438 16.5988C1.40587 16.8407 1.27196 17.1688 1.27211 17.5107C1.27226 17.8527 1.40645 18.1806 1.64518 18.4223C1.88391 18.6639 2.2076 18.7996 2.54507 18.7995C2.88253 18.7993 3.20611 18.6634 3.44462 18.4214L3.81675 18.0492V29.652H1.27225C0.934829 29.652 0.611227 29.7878 0.372634 30.0296C0.13404 30.2713 0 30.5993 0 30.9412C0 31.2831 0.13404 31.611 0.372634 31.8528C0.611227 32.0945 0.934829 32.2304 1.27225 32.2304H36.8953C37.2327 32.2304 37.5563 32.0945 37.7949 31.8528C38.0335 31.611 38.1675 31.2831 38.1675 30.9412C38.1675 30.5993 38.0335 30.2713 37.7949 30.0296C37.5563 29.7878 37.2327 29.652 36.8953 29.652ZM6.36126 15.4708L19.0838 2.57881L31.8063 15.4708V29.652H24.1728V20.6276C24.1728 20.2857 24.0387 19.9578 23.8001 19.716C23.5616 19.4742 23.2379 19.3384 22.9005 19.3384H15.267C14.9296 19.3384 14.606 19.4742 14.3674 19.716C14.1288 19.9578 13.9948 20.2857 13.9948 20.6276V29.652H6.36126V15.4708ZM21.6283 29.652H16.5393V21.9168H21.6283V29.652Z" fill="black"/>
</svg>
