<svg width="41" height="35" viewBox="0 0 41 35" fill="none" xmlns="http://www.w3.org/2000/svg">
<path d="M38.1678 30.9242H35.6232V19.3214L35.9954 19.6985C36.2345 19.9404 36.5587 20.0762 36.8966 20.0759C37.2345 20.0756 37.5585 19.9393 37.7972 19.6969C38.0359 19.4546 38.1699 19.1261 38.1696 18.7837C38.1693 18.4413 38.0348 18.113 37.7956 17.8711L22.1549 2.02684C21.6777 1.54367 21.0308 1.27225 20.3562 1.27225C19.6817 1.27225 19.0347 1.54367 18.5576 2.02684L2.91685 17.8711C2.67833 18.113 2.54442 18.441 2.54457 18.783C2.54472 19.1249 2.67891 19.4528 2.91764 19.6945C3.15637 19.9362 3.48007 20.0719 3.81753 20.0717C4.15499 20.0716 4.47857 19.9356 4.71708 19.6937L5.08922 19.3214V30.9242H2.54471C2.20729 30.9242 1.88369 31.06 1.64509 31.3018C1.4065 31.5436 1.27246 31.8715 1.27246 32.2134C1.27246 32.5553 1.4065 32.8832 1.64509 33.125C1.88369 33.3668 2.20729 33.5026 2.54471 33.5026H38.1678C38.5052 33.5026 38.8288 33.3668 39.0674 33.125C39.306 32.8832 39.44 32.5553 39.44 32.2134C39.44 31.8715 39.306 31.5436 39.0674 31.3018C38.8288 31.06 38.5052 30.9242 38.1678 30.9242ZM7.63372 16.743L20.3562 3.85106L33.0787 16.743V30.9242H25.4452V21.8998C25.4452 21.5579 25.3112 21.23 25.0726 20.9882C24.834 20.7465 24.5104 20.6106 24.173 20.6106H16.5395C16.2021 20.6106 15.8785 20.7465 15.6399 20.9882C15.4013 21.23 15.2672 21.5579 15.2672 21.8998V30.9242H7.63372V16.743ZM22.9007 30.9242H17.8117V23.189H22.9007V30.9242Z" fill="black" stroke="black" stroke-width="2.5445"/>
</svg>
