<svg width="19" height="19" viewBox="0 0 19 19" fill="none" xmlns="http://www.w3.org/2000/svg">
<path d="M2.28662 18.293C1.6578 18.293 1.11968 18.1225 0.672266 17.7816C0.224851 17.4408 0.000762207 17.0305 0 16.5508V7.83985C0 7.36074 0.224089 6.95075 0.672266 6.60986C1.12044 6.26897 1.65856 6.09824 2.28662 6.09766H3.42993V4.35547C3.42993 3.15046 3.98749 2.12344 5.1026 1.27441C6.2177 0.425385 7.56567 0.000581324 9.14649 5.94603e-07C10.7273 -0.000580135 12.0756 0.424223 13.1915 1.27441C14.3074 2.1246 14.8646 3.15162 14.863 4.35547V6.09766H16.0063C16.6352 6.09766 17.1737 6.26839 17.6218 6.60986C18.07 6.95133 18.2937 7.36132 18.293 7.83985V16.5508C18.293 17.0299 18.0693 17.4402 17.6218 17.7816C17.1744 18.1231 16.6359 18.2936 16.0063 18.293H2.28662ZM9.14649 13.9375C9.77531 13.9375 10.3138 13.7671 10.762 13.4262C11.2102 13.0853 11.4339 12.675 11.4331 12.1953C11.4323 11.7156 11.2086 11.3056 10.762 10.9653C10.3153 10.625 9.77683 10.4543 9.14649 10.4531C8.51614 10.452 7.97802 10.6227 7.53213 10.9653C7.08624 11.308 6.86215 11.718 6.85986 12.1953C6.85758 12.6727 7.08167 13.083 7.53213 13.4262C7.9826 13.7694 8.52071 13.9398 9.14649 13.9375ZM5.71655 6.09766H12.5764V4.35547C12.5764 3.62956 12.243 3.01253 11.576 2.5044C10.9091 1.99626 10.0992 1.74219 9.14649 1.74219C8.19373 1.74219 7.38388 1.99626 6.71695 2.5044C6.05002 3.01253 5.71655 3.62956 5.71655 4.35547V6.09766Z" fill="#CCCCCC"/>
</svg>
