<svg width="48" height="37" viewBox="0 0 48 37" fill="none" xmlns="http://www.w3.org/2000/svg">
<path d="M10.9091 37C10.2909 37 9.7731 36.791 9.35564 36.3731C8.93819 35.9553 8.72873 35.4387 8.72728 34.8235C8.72582 34.2083 8.93528 33.6917 9.35564 33.2739C9.776 32.856 10.2938 32.647 10.9091 32.647H12.2182L16.5273 18.3368C16.8182 17.3936 17.3549 16.6413 18.1375 16.0798C18.92 15.5182 19.7833 15.2367 20.7273 15.2353H27.2727C28.2182 15.2353 29.0822 15.5168 29.8647 16.0798C30.6473 16.6427 31.1833 17.3951 31.4727 18.3368L35.7818 32.647H37.0909C37.7091 32.647 38.2276 32.856 38.6465 33.2739C39.0654 33.6917 39.2742 34.2083 39.2727 34.8235C39.2713 35.4387 39.0618 35.956 38.6444 36.3753C38.2269 36.7947 37.7091 37.0029 37.0909 37H10.9091ZM16.8 32.647H31.2L27.2727 19.5882H20.7273L16.8 32.647ZM21.8182 8.70588V2.17648C21.8182 1.55981 22.0276 1.04326 22.4465 0.626831C22.8655 0.2104 23.3833 0.00145848 24 7.50505e-06C24.6167 -0.00144347 25.1353 0.207498 25.5556 0.626831C25.976 1.04616 26.1847 1.56271 26.1818 2.17648V8.70588C26.1818 9.32255 25.9724 9.83982 25.5535 10.2577C25.1345 10.6756 24.6167 10.8838 24 10.8823C23.3833 10.8809 22.8655 10.672 22.4465 10.2555C22.0276 9.8391 21.8182 9.32255 21.8182 8.70588ZM33.2727 11.6441L37.9091 7.01912C38.3091 6.6201 38.8095 6.41116 39.4102 6.39229C40.0109 6.37343 40.5287 6.58237 40.9636 7.01912C41.3636 7.41814 41.5636 7.92598 41.5636 8.54265C41.5636 9.15931 41.3636 9.66715 40.9636 10.0662L36.3273 14.7456C35.8909 15.1809 35.3818 15.3985 34.8 15.3985C34.2182 15.3985 33.7091 15.1809 33.2727 14.7456C32.8364 14.3103 32.6182 13.7937 32.6182 13.1959C32.6182 12.5981 32.8364 12.0809 33.2727 11.6441ZM39.2727 21.7647H45.8182C46.4364 21.7647 46.9549 21.9736 47.3738 22.3915C47.7927 22.8094 48.0014 23.3259 48 23.9412C47.9985 24.5564 47.7891 25.0737 47.3716 25.493C46.9542 25.9123 46.4364 26.1205 45.8182 26.1176H39.2727C38.6545 26.1176 38.1367 25.9087 37.7193 25.4908C37.3018 25.0729 37.0924 24.5564 37.0909 23.9412C37.0895 23.3259 37.2989 22.8094 37.7193 22.3915C38.1396 21.9736 38.6575 21.7647 39.2727 21.7647ZM11.6727 14.6912L7.03637 10.0662C6.63637 9.66715 6.42764 9.16874 6.41019 8.57094C6.39273 7.97314 6.60146 7.45586 7.03637 7.01912C7.43637 6.6201 7.94546 6.42059 8.56364 6.42059C9.18182 6.42059 9.69091 6.6201 10.0909 7.01912L14.7818 11.6441C15.2182 12.0794 15.4364 12.5872 15.4364 13.1676C15.4364 13.748 15.2182 14.2559 14.7818 14.6912C14.3455 15.1265 13.8276 15.3441 13.2284 15.3441C12.6291 15.3441 12.1105 15.1265 11.6727 14.6912ZM2.18183 26.1176C1.56364 26.1176 1.04583 25.9087 0.628371 25.4908C0.210917 25.0729 0.00146207 24.5564 7.52351e-06 23.9412C-0.00144702 23.3259 0.208007 22.8094 0.628371 22.3915C1.04873 21.9736 1.56655 21.7647 2.18183 21.7647H8.72728C9.34546 21.7647 9.864 21.9736 10.2829 22.3915C10.7018 22.8094 10.9105 23.3259 10.9091 23.9412C10.9076 24.5564 10.6982 25.0737 10.2807 25.493C9.86328 25.9123 9.34546 26.1205 8.72728 26.1176H2.18183Z" fill="#8F0404"/>
</svg>
