<svg width="39" height="33" viewBox="0 0 39 33" fill="none" xmlns="http://www.w3.org/2000/svg">
<path d="M15.268 23.9821V14.2434L2.54467 9.0581V23.3177L13.3595 27.7415L12.7432 29.7994L0 24.6141V6.72471L16.5403 0L33.0807 6.72471V11.0998C32.1529 11.2187 31.3047 11.4617 30.536 11.829V9.0581L17.8127 14.2434V21.908L15.268 23.9821ZM12.445 3.97001L24.055 9.38219L28.9655 7.37288L16.5403 2.30099L12.445 3.97001ZM16.5403 12.4448L21.3116 10.5003L9.70154 5.08809L4.1152 7.37288L16.5403 12.4448ZM34.194 13.5953C34.7506 13.5953 35.2675 13.6763 35.7446 13.8383C36.2217 14.0004 36.6458 14.2218 37.0169 14.5027C37.388 14.7836 37.6664 15.1238 37.8519 15.5235C38.0375 15.9233 38.1435 16.35 38.17 16.8037C38.17 17.225 38.0706 17.6355 37.8718 18.0352C37.673 18.4349 37.388 18.786 37.0169 19.0885L22.7628 30.7068L15.268 32.23L17.1367 26.121L31.3908 14.5189C31.7752 14.2056 32.2059 13.9734 32.6831 13.8221C33.1602 13.6709 33.6638 13.5953 34.194 13.5953ZM35.2078 17.6301C35.4862 17.4032 35.6253 17.1278 35.6253 16.8037C35.6253 16.4688 35.4928 16.1987 35.2277 15.9935C34.9627 15.7882 34.6181 15.6802 34.194 15.6694C34.0084 15.6694 33.8295 15.691 33.6572 15.7342C33.4849 15.7774 33.3325 15.8584 33.1999 15.9773L19.4428 27.1905L18.7669 29.3781L21.4507 28.8271L35.2078 17.6301Z" fill="black"/>
</svg>
