<svg width="40" height="35" viewBox="0 0 40 35" fill="none" xmlns="http://www.w3.org/2000/svg">
<path d="M16.018 24.7917V15.053L3.29467 9.86767V24.1273L14.1095 28.551L13.4932 30.609L0.75 25.4236V7.53428L17.2903 0.80957L33.8307 7.53428V11.9094C32.9029 12.0282 32.0547 12.2713 31.286 12.6386V9.86767L18.5627 15.053V22.7175L16.018 24.7917ZM13.195 4.77958L24.805 10.1918L29.7155 8.18245L17.2903 3.11056L13.195 4.77958ZM17.2903 13.2543L22.0616 11.3098L10.4515 5.89766L4.8652 8.18245L17.2903 13.2543ZM34.944 14.4048C35.5006 14.4048 36.0175 14.4858 36.4946 14.6479C36.9717 14.8099 37.3958 15.0314 37.7669 15.3123C38.138 15.5931 38.4164 15.9334 38.6019 16.3331C38.7875 16.7328 38.8935 17.1595 38.92 17.6132C38.92 18.0346 38.8206 18.4451 38.6218 18.8448C38.423 19.2445 38.138 19.5956 37.7669 19.898L23.5128 31.5164L16.018 33.0396L17.8867 26.9306L32.1408 15.3285C32.5252 15.0152 32.9559 14.7829 33.4331 14.6317C33.9102 14.4804 34.4138 14.4048 34.944 14.4048ZM35.9578 18.4397C36.2362 18.2128 36.3753 17.9373 36.3753 17.6132C36.3753 17.2784 36.2428 17.0083 35.9777 16.803C35.7127 16.5978 35.3681 16.4898 34.944 16.479C34.7584 16.479 34.5795 16.5006 34.4072 16.5438C34.2349 16.587 34.0825 16.668 33.9499 16.7868L20.1928 28.0001L19.5169 30.1876L22.2007 29.6367L35.9578 18.4397Z" fill="black" stroke="black" stroke-width="1.5"/>
</svg>
