<svg width="25" height="42" viewBox="0 0 25 42" fill="none" xmlns="http://www.w3.org/2000/svg">
<path d="M10.8995 24.6597H7.76803C4.54746 24.6597 2.93832 24.6597 2.26403 23.6037C1.58975 22.5499 2.26632 21.0894 3.61946 18.1682L9.86175 4.68251C10.7189 2.83565 11.1463 1.91222 11.5943 2.00822C12.0423 2.1088 12.0423 3.12822 12.0423 5.16251V15.2882C12.0423 15.8277 12.0423 16.0974 12.2092 16.2642C12.376 16.4311 12.6457 16.4311 13.1852 16.4311H16.3166C19.5372 16.4311 21.1463 16.4311 21.8206 17.4871C22.4949 18.5408 21.8183 20.0014 20.4652 22.9225L14.2229 36.4082C13.3658 38.2551 12.9383 39.1785 12.4903 39.0825C12.0423 38.9797 12.0423 37.9625 12.0423 35.9282V25.8025C12.0423 25.2631 12.0423 24.9934 11.8755 24.8265C11.7086 24.6597 11.4389 24.6597 10.8995 24.6597Z" stroke="white" stroke-width="4"/>
</svg>
