<svg width="32" height="30" viewBox="0 0 32 30" fill="none" xmlns="http://www.w3.org/2000/svg">
<path d="M18.0509 1.2532L31.6827 26.2404C31.8906 26.6214 32 27.0536 32 27.4936C32 27.9335 31.8906 28.3658 31.6827 28.7468C31.4749 29.1278 31.1759 29.4442 30.8159 29.6642C30.4559 29.8842 30.0475 30 29.6318 30H2.36821C1.9525 30 1.54411 29.8842 1.1841 29.6642C0.824083 29.4442 0.525126 29.1278 0.317273 28.7468C0.109421 28.3658 -2.64023e-06 27.9335 0 27.4936C2.64032e-06 27.0536 0.109432 26.6214 0.317288 26.2404L13.9491 1.2532C14.8601 -0.417734 17.1383 -0.417734 18.0509 1.2532ZM16 4.17734L3.7355 26.6581H28.2645L16 4.17734ZM16 21.0571C16.4187 21.0571 16.8203 21.2332 17.1164 21.5466C17.4125 21.8599 17.5788 22.2849 17.5788 22.7281C17.5788 23.1712 17.4125 23.5963 17.1164 23.9096C16.8203 24.223 16.4187 24.399 16 24.399C15.5813 24.399 15.1797 24.223 14.8836 23.9096C14.5875 23.5963 14.4211 23.1712 14.4211 22.7281C14.4211 22.2849 14.5875 21.8599 14.8836 21.5466C15.1797 21.2332 15.5813 21.0571 16 21.0571ZM16 9.36059C16.4187 9.36059 16.8203 9.53663 17.1164 9.85C17.4125 10.1634 17.5788 10.5884 17.5788 11.0315V17.7153C17.5788 18.1584 17.4125 18.5834 17.1164 18.8968C16.8203 19.2102 16.4187 19.3862 16 19.3862C15.5813 19.3862 15.1797 19.2102 14.8836 18.8968C14.5875 18.5834 14.4211 18.1584 14.4211 17.7153V11.0315C14.4211 10.5884 14.5875 10.1634 14.8836 9.85C15.1797 9.53663 15.5813 9.36059 16 9.36059Z" fill="#8F0404"/>
</svg>
