<svg width="48" height="48" viewBox="0 0 48 48" fill="none" xmlns="http://www.w3.org/2000/svg">
<path d="M24 37.3508C31.3749 37.3508 37.3532 31.3722 37.3532 23.9973C37.3532 16.6224 31.3749 10.6438 24 10.6438C16.6251 10.6438 10.6465 16.6224 10.6465 23.9973C10.6465 31.3722 16.625 37.3508 23.9998 37.3508" fill="white"/>
<path d="M6.72869 17.436C5.7325 15.7105 4.56157 13.8996 3.21589 12.0032C1.10921 15.6512 7.15603e-05 19.7896 3.46263e-09 24.0022C-7.15534e-05 28.2149 1.10892 32.3533 3.21549 36.0014C5.32205 39.6495 8.35193 42.6788 12.0005 44.7846C15.6491 46.8903 19.7877 47.9985 24.0004 47.9975C26.2091 44.8995 27.7088 42.6659 28.4994 41.2966C30.0178 38.6665 31.9816 34.9011 34.3909 30.0002V29.9974C33.3383 31.8223 31.8238 33.3379 29.9997 34.3917C28.1756 35.4456 26.1062 36.0006 23.9995 36.0009C21.8929 36.0012 19.8233 35.4469 17.9988 34.3936C16.1744 33.3403 14.6595 31.8252 13.6064 30.0006C10.3343 23.8982 8.04174 19.7099 6.72869 17.436Z" fill="#229342"/>
<path d="M24.0024 47.9964C27.154 47.997 30.2748 47.3766 33.1866 46.1707C36.0984 44.9649 38.7441 43.1972 40.9726 40.9686C43.201 38.74 44.9686 36.0942 46.1743 33.1824C47.38 30.2705 48.0002 27.1496 47.9995 23.998C47.9986 19.7853 46.8888 15.6471 44.7816 11.9993C40.2354 11.5512 36.8802 11.3271 34.7161 11.3271C32.2622 11.3271 28.6904 11.5512 24.0007 11.9993L23.998 12.0012C26.1047 12.0001 28.1746 12.5538 29.9994 13.6066C31.8242 14.6594 33.3396 16.1741 34.3932 17.9984C35.4469 19.8227 36.0016 21.8923 36.0015 23.999C36.0015 26.1057 35.4467 28.1753 34.393 29.9995L24.0024 47.9964Z" fill="#FBC116"/>
<path d="M24.0001 33.5001C29.2468 33.5001 33.5 29.2469 33.5 24.0001C33.5 18.7532 29.2468 14.5 23.9999 14.5C18.7534 14.5 14.5 18.7534 14.5 24.0001C14.5 29.2468 18.7534 33.5001 24.0001 33.5001Z" fill="#1A73E8"/>
<path d="M23.9996 12.0001H44.7803C42.6746 8.35149 39.6453 5.32159 35.9971 3.21508C32.3489 1.10858 28.2104 -0.00028499 23.9978 5.49414e-08C19.7851 0.000285099 15.6467 1.10971 11.9988 3.21671C8.35092 5.32371 5.32206 8.35401 3.2168 12.0029L13.6073 30L13.6101 30.0015C12.5559 28.1775 12.0006 26.1081 12 24.0014C11.9994 21.8947 12.5535 19.825 13.6065 18.0004C14.6596 16.1758 16.1746 14.6607 17.999 13.6073C19.8235 12.554 21.8931 11.9996 23.9998 11.9999L23.9996 12.0001Z" fill="#E33B2E"/>
</svg>
