<svg width="60" height="60" viewBox="0 0 60 60" fill="none" xmlns="http://www.w3.org/2000/svg">
<path d="M5.57143 0C4.09379 0 2.67668 0.640045 1.63183 1.77933C0.586988 2.91862 0 4.46382 0 6.07502V12.6173C0 14.2285 0.586988 15.7737 1.63183 16.913C2.67668 18.0523 4.09379 18.6924 5.57143 18.6924H11.5714C13.0491 18.6924 14.4662 18.0523 15.511 16.913C16.5559 15.7737 17.1429 14.2285 17.1429 12.6173V6.07502C17.1429 4.46382 16.5559 2.91862 15.511 1.77933C14.4662 0.640045 13.0491 0 11.5714 0H5.57143ZM5.57143 20.6534C4.09379 20.6534 2.67668 21.2934 1.63183 22.4327C0.586988 23.572 0 25.1172 0 26.7284V33.2707C0 34.8819 0.586988 36.4271 1.63183 37.5664C2.67668 38.7057 4.09379 39.3458 5.57143 39.3458H11.5714C12.3031 39.3458 13.0276 39.1886 13.7035 38.8833C14.3795 38.578 14.9937 38.1305 15.511 37.5664C16.0284 37.0023 16.4388 36.3326 16.7188 35.5956C16.9987 34.8585 17.1429 34.0685 17.1429 33.2707V26.7284C17.1429 25.1172 16.5559 23.572 15.511 22.4327C14.4662 21.2934 13.0491 20.6534 11.5714 20.6534H5.57143ZM27 0.000844766C25.5224 0.000844766 24.1052 0.640889 23.0604 1.78018C22.0156 2.91946 21.4286 4.46467 21.4286 6.07586V12.6182C21.4286 14.2294 22.0156 15.7746 23.0604 16.9139C24.1052 18.0532 25.5224 18.6932 27 18.6932H33C33.7316 18.6932 34.4561 18.5361 35.1321 18.2308C35.8081 17.9255 36.4222 17.478 36.9396 16.9139C37.4569 16.3498 37.8673 15.6801 38.1473 14.943C38.4273 14.2059 38.5714 13.416 38.5714 12.6182V6.07586C38.5714 5.27808 38.4273 4.48811 38.1473 3.75105C37.8673 3.014 37.4569 2.34429 36.9396 1.78018C36.4222 1.21606 35.8081 0.768576 35.1321 0.463278C34.4561 0.15798 33.7316 0.000844766 33 0.000844766H27ZM27 20.6542C25.5224 20.6542 24.1052 21.2943 23.0604 22.4336C22.0156 23.5729 21.4286 25.1181 21.4286 26.7293V33.2716C21.4286 34.8828 22.0156 36.428 23.0604 37.5673C24.1052 38.7066 25.5224 39.3466 27 39.3466H33C33.7316 39.3466 34.4561 39.1895 35.1321 38.8842C35.8081 38.5789 36.4222 38.1314 36.9396 37.5673C37.4569 37.0032 37.8673 36.3335 38.1473 35.5964C38.4273 34.8593 38.5714 34.0694 38.5714 33.2716V26.7293C38.5714 25.9315 38.4273 25.1415 38.1473 24.4044C37.8673 23.6674 37.4569 22.9977 36.9396 22.4336C36.4222 21.8695 35.8081 21.422 35.1321 21.1167C34.4561 20.8114 33.7316 20.6542 33 20.6542H27Z" fill="black" fill-opacity="0.6"/>
<path d="M1.63183 43.0861C2.67668 41.9468 4.09379 41.3068 5.57143 41.3068H11.5714C12.3031 41.3068 13.0276 41.4639 13.7035 41.7692C14.3795 42.0745 14.9937 42.522 15.511 43.0861C16.0284 43.6502 16.4388 44.3199 16.7188 45.057C16.9987 45.7941 17.1429 46.584 17.1429 47.3818V53.9241C17.1429 54.7219 16.9987 55.5119 16.7188 56.2489C16.4388 56.986 16.0284 57.6557 15.511 58.2198C14.9937 58.7839 14.3795 59.2314 13.7035 59.5367C13.0276 59.842 12.3031 59.9991 11.5714 59.9991H5.57143C4.09379 59.9991 2.67668 59.3591 1.63183 58.2198C0.586988 57.0805 0 55.5353 0 53.9241V47.3818C0 45.7706 0.586988 44.2254 1.63183 43.0861Z" fill="black" fill-opacity="0.6"/>
<path d="M23.0604 43.087C24.1052 41.9477 25.5224 41.3076 27 41.3076H33C33.7316 41.3076 34.4561 41.4648 35.1321 41.7701C35.8081 42.0754 36.4222 42.5228 36.9396 43.087C37.4569 43.6511 37.8673 44.3208 38.1473 45.0578C38.4273 45.7949 38.5714 46.5849 38.5714 47.3827V53.925C38.5714 54.7228 38.4273 55.5127 38.1473 56.2498C37.8673 56.9868 37.4569 57.6565 36.9396 58.2207C36.4222 58.7848 35.8081 59.2323 35.1321 59.5376C34.4561 59.8429 33.7316 60 33 60H27C25.5224 60 24.1052 59.36 23.0604 58.2207C22.0156 57.0814 21.4286 55.5362 21.4286 53.925V47.3827C21.4286 45.7715 22.0156 44.2262 23.0604 43.087Z" fill="black" fill-opacity="0.6"/>
<path d="M44.489 43.087C45.5338 41.9477 46.9509 41.3076 48.4286 41.3076H54.4286C55.1602 41.3076 55.8847 41.4648 56.5607 41.7701C57.2366 42.0754 57.8508 42.5229 58.3682 43.087C58.8855 43.6511 59.2959 44.3208 59.5759 45.0578C59.8559 45.7949 60 46.5849 60 47.3827V53.925C60 54.7228 59.8559 55.5127 59.5759 56.2498C59.2959 56.9868 58.8855 57.6566 58.3682 58.2207C57.8508 58.7848 57.2366 59.2323 56.5607 59.5376C55.8847 59.8429 55.1602 60 54.4286 60H48.4286C46.9509 60 45.5338 59.36 44.489 58.2207C43.4441 57.0814 42.8571 55.5362 42.8571 53.925V47.3827C42.8571 45.7715 43.4441 44.2263 44.489 43.087Z" fill="black" fill-opacity="0.6"/>
<path d="M44.489 22.4336C45.5338 21.2943 46.9509 20.6542 48.4286 20.6542H54.4286C55.1602 20.6542 55.8847 20.8114 56.5607 21.1167C57.2366 21.422 57.8508 21.8695 58.3682 22.4336C58.8855 22.9977 59.2959 23.6674 59.5759 24.4044C59.8559 25.1415 60 25.9315 60 26.7293V33.2716C60 34.0694 59.8559 34.8593 59.5759 35.5964C59.2959 36.3335 58.8855 37.0032 58.3682 37.5673C57.8508 38.1314 57.2366 38.5789 56.5607 38.8842C55.8847 39.1895 55.1602 39.3466 54.4286 39.3466H48.4286C46.9509 39.3466 45.5338 38.7066 44.489 37.5673C43.4441 36.428 42.8571 34.8828 42.8571 33.2716V26.7293C42.8571 25.1181 43.4441 23.5729 44.489 22.4336Z" fill="black" fill-opacity="0.6"/>
<path d="M44.489 1.77933C45.5338 0.640044 46.9509 0 48.4286 0H54.4286C55.1602 0 55.8847 0.157139 56.5607 0.462437C57.2366 0.767735 57.8508 1.21521 58.3682 1.77933C58.8855 2.34345 59.2959 3.01315 59.5759 3.75021C59.8559 4.48726 60 5.27724 60 6.07502V12.6173C60 13.4151 59.8559 14.2051 59.5759 14.9422C59.2959 15.6792 58.8855 16.3489 58.3682 16.913C57.8508 17.4771 57.2366 17.9246 56.5607 18.2299C55.8847 18.5352 55.1602 18.6924 54.4286 18.6924H48.4286C46.9509 18.6924 45.5338 18.0523 44.489 16.913C43.4441 15.7737 42.8571 14.2285 42.8571 12.6173V6.07502C42.8571 4.46383 43.4441 2.91862 44.489 1.77933Z" fill="black" fill-opacity="0.6"/>
</svg>
